Coordinates
version=1
nRows=5
nColumns=42
inDegrees=yes

Units are S.I. units (second, meters, Newtons, ...)
If the header above contains a line with 'inDegrees', this indicates whether rotational values are in degrees (yes) or radians (no).

endheader
time	pelvis_tilt	pelvis_list	pelvis_rotation	pelvis_tx	pelvis_ty	pelvis_tz	hip_flexion_r	hip_adduction_r	hip_rotation_r	knee_angle_r	knee_adduction_r	knee_angle_r_beta	ankle_angle_r	subtalar_angle_r	mtp_angle_r	hip_flexion_l	hip_adduction_l	hip_rotation_l	knee_angle_l	knee_adduction_l	knee_angle_l_beta	ankle_angle_l	subtalar_angle_l	mtp_angle_l	lumbar_extension	lumbar_bending	lumbar_rotation	arm_flex_r	arm_add_r	arm_rot_r	elbow_flex_r	pro_sup_r	wrist_flex_r	wrist_dev_r	arm_flex_l	arm_add_l	arm_rot_l	elbow_flex_l	pro_sup_l	wrist_flex_l	wrist_dev_l
      0.37000000	      0.56118729	     -4.39547703	     -2.24321079	     -0.55175410	      0.95657931	     -0.22579891	    -15.00037472	      6.44560394	      4.72097196	      5.10276913	      0.68959007	      0.08906012	     13.92919013	     -2.69853070	     -7.99839988	     24.30199387	     -6.87949562	    -10.78028155	      6.73689465	      1.84209648	      0.11758099	      1.52896862	      3.65888452	     -7.99839988	    -13.19383802	      4.48450855	      9.78164898	     -1.37293802	    -14.73389620	      3.95241571	     50.91275728	     90.00000001	      0.00000000	      0.00000000	     -6.03151136	    -12.85041804	      1.34388081	     38.99638808	     90.00000001	      0.00000000	      0.00000000
      0.38000000	      0.34453845	     -4.63869722	     -2.38314918	     -0.53730990	      0.95328077	     -0.22517385	    -15.68296797	      6.70920147	      4.80203203	      5.28213018	      0.63547305	      0.09219056	     14.40476078	     -2.66109156	     -7.99246453	     24.66226472	     -7.13064309	    -10.43707921	      5.55480586	      1.96452146	      0.09694965	      1.52133510	      4.87312359	     -7.99246453	    -12.94585000	      4.55509141	     10.05127663	     -1.12670528	    -14.69027948	      3.99582307	     51.25117141	     90.00000001	      0.00000000	      0.00000000	     -6.15660034	    -12.85565877	      1.16124800	     37.60124965	     90.00000001	      0.00000000	      0.00000000
      0.39000000	      0.43418009	     -4.66161371	     -2.66944637	     -0.52262313	      0.95060726	     -0.22476582	    -16.64059915	      6.58208464	      4.94742447	      5.56358228	      0.71646323	      0.09710283	     14.68985373	     -2.50288207	     -7.96872569	     24.72008222	     -7.13449595	    -10.65705263	      4.99187216	      1.84451221	      0.08712460	      1.84780839	      6.39091958	     -7.96872569	    -13.05646417	      4.37520235	     10.40507953	     -0.88839285	    -14.61489912	      3.84115556	     51.58126169	     90.00000001	      0.00000000	      0.00000000	     -6.11077100	    -12.61559235	      0.22167755	     35.86720491	     90.00000001	      0.00000000	      0.00000000
      0.40000000	      0.32023666	     -4.67622148	     -2.81568527	     -0.50795907	      0.94780889	     -0.22424455	    -17.27914739	      6.60053082	      5.03232596	      6.05699347	      0.61312409	      0.10571448	     14.94442964	     -2.49208037	     -7.96336273	     25.02808903	     -7.11590352	    -10.30993217	      4.90169722	      1.82163991	      0.08555076	      1.88760611	      6.80960606	     -7.96336273	    -12.92664506	      4.16103688	     10.55652883	     -0.62559429	    -14.44617151	      3.83538487	     51.69126425	     90.00000001	      0.00000000	      0.00000000	     -6.21040898	    -12.65937761	      0.08728276	     34.46097247	     90.00000001	      0.00000000	      0.00000000
      0.41000000	      0.29905836	     -4.54930641	     -3.06599402	     -0.49308164	      0.94548786	     -0.22397843	    -17.90421098	      6.31868695	      5.07233383	      6.74981534	      0.68764090	      0.11780650	     15.03130246	     -2.48382525	     -7.95552740	     25.18829600	     -6.89648513	     -9.99229684	      5.23649455	      1.61477558	      0.09139407	      1.85200448	      6.91484600	     -7.95552740	    -12.88707931	      3.80331068	     10.84155506	     -0.43721730	    -14.26181702	      3.65157177	     51.66531792	     90.00000001	      0.00000000	      0.00000000	     -6.05476685	    -12.53981998	     -0.35704554	     32.59242209	     90.00000001	      0.00000000	      0.00000000
